<?xml version="1.0" encoding="utf-8" standalone="no"?>
<!DOCTYPE svg PUBLIC "-//W3C//DTD SVG 1.1//EN"
  "http://www.w3.org/Graphics/SVG/1.1/DTD/svg11.dtd">
<svg xmlns:xlink="http://www.w3.org/1999/xlink" width="864pt" height="288pt" viewBox="0 0 864 288" xmlns="http://www.w3.org/2000/svg" version="1.1">
 <metadata>
  <rdf:RDF xmlns:dc="http://purl.org/dc/elements/1.1/" xmlns:cc="http://creativecommons.org/ns#" xmlns:rdf="http://www.w3.org/1999/02/22-rdf-syntax-ns#">
   <cc:Work>
    <dc:type rdf:resource="http://purl.org/dc/dcmitype/StillImage"/>
    <dc:date>2021-12-07T19:45:28.672248</dc:date>
    <dc:format>image/svg+xml</dc:format>
    <dc:creator>
     <cc:Agent>
      <dc:title>Matplotlib v3.5.0, https://matplotlib.org/</dc:title>
     </cc:Agent>
    </dc:creator>
   </cc:Work>
  </rdf:RDF>
 </metadata>
 <defs>
  <style type="text/css">*{stroke-linejoin: round; stroke-linecap: butt}</style>
 </defs>
 <g id="figure_1">
  <g id="patch_1">
   <path d="M 0 288 
L 864 288 
L 864 0 
L 0 0 
L 0 288 
z
" style="fill: none"/>
  </g>
  <g id="axes_1">
   <g id="patch_2">
    <path d="M 30.525 195.157188 
L 853.2 195.157188 
L 853.2 25.918125 
L 30.525 25.918125 
z
" style="fill: #ffffff"/>
   </g>
   <g id="patch_3">
    <path d="M 67.919318 195.157188 
L 75.473726 195.157188 
L 75.473726 33.977128 
L 67.919318 33.977128 
z
" clip-path="url(#pb6b4bdfa31)" style="fill: #0000ff"/>
   </g>
   <g id="patch_4">
    <path d="M 83.028134 195.157188 
L 90.582541 195.157188 
L 90.582541 36.456821 
L 83.028134 36.456821 
z
" clip-path="url(#pb6b4bdfa31)" style="fill: #0000ff"/>
   </g>
   <g id="patch_5">
    <path d="M 98.136949 195.157188 
L 105.691357 195.157188 
L 105.691357 43.895901 
L 98.136949 43.895901 
z
" clip-path="url(#pb6b4bdfa31)" style="fill: #0000ff"/>
   </g>
   <g id="patch_6">
    <path d="M 113.245764 195.157188 
L 120.800172 195.157188 
L 120.800172 43.895901 
L 113.245764 43.895901 
z
" clip-path="url(#pb6b4bdfa31)" style="fill: #0000ff"/>
   </g>
   <g id="patch_7">
    <path d="M 128.35458 195.157188 
L 135.908988 195.157188 
L 135.908988 46.375594 
L 128.35458 46.375594 
z
" clip-path="url(#pb6b4bdfa31)" style="fill: #0000ff"/>
   </g>
   <g id="patch_8">
    <path d="M 143.463395 195.157188 
L 151.017803 195.157188 
L 151.017803 46.375594 
L 143.463395 46.375594 
z
" clip-path="url(#pb6b4bdfa31)" style="fill: #0000ff"/>
   </g>
   <g id="patch_9">
    <path d="M 158.572211 195.157188 
L 166.126618 195.157188 
L 166.126618 53.814674 
L 158.572211 53.814674 
z
" clip-path="url(#pb6b4bdfa31)" style="fill: #0000ff"/>
   </g>
   <g id="patch_10">
    <path d="M 173.681026 195.157188 
L 181.235434 195.157188 
L 181.235434 61.253754 
L 173.681026 61.253754 
z
" clip-path="url(#pb6b4bdfa31)" style="fill: #0000ff"/>
   </g>
   <g id="patch_11">
    <path d="M 188.789842 195.157188 
L 196.344249 195.157188 
L 196.344249 61.253754 
L 188.789842 61.253754 
z
" clip-path="url(#pb6b4bdfa31)" style="fill: #0000ff"/>
   </g>
   <g id="patch_12">
    <path d="M 203.898657 195.157188 
L 211.453065 195.157188 
L 211.453065 61.253754 
L 203.898657 61.253754 
z
" clip-path="url(#pb6b4bdfa31)" style="fill: #0000ff"/>
   </g>
   <g id="patch_13">
    <path d="M 219.007472 195.157188 
L 226.56188 195.157188 
L 226.56188 63.733447 
L 219.007472 63.733447 
z
" clip-path="url(#pb6b4bdfa31)" style="fill: #0000ff"/>
   </g>
   <g id="patch_14">
    <path d="M 234.116288 195.157188 
L 241.670696 195.157188 
L 241.670696 71.172526 
L 234.116288 71.172526 
z
" clip-path="url(#pb6b4bdfa31)" style="fill: #0000ff"/>
   </g>
   <g id="patch_15">
    <path d="M 249.225103 195.157188 
L 256.779511 195.157188 
L 256.779511 71.172526 
L 249.225103 71.172526 
z
" clip-path="url(#pb6b4bdfa31)" style="fill: #0000ff"/>
   </g>
   <g id="patch_16">
    <path d="M 264.333919 195.157188 
L 271.888326 195.157188 
L 271.888326 76.131913 
L 264.333919 76.131913 
z
" clip-path="url(#pb6b4bdfa31)" style="fill: #0000ff"/>
   </g>
   <g id="patch_17">
    <path d="M 279.442734 195.157188 
L 286.997142 195.157188 
L 286.997142 78.611606 
L 279.442734 78.611606 
z
" clip-path="url(#pb6b4bdfa31)" style="fill: #0000ff"/>
   </g>
   <g id="patch_18">
    <path d="M 294.55155 195.157188 
L 302.105957 195.157188 
L 302.105957 78.611606 
L 294.55155 78.611606 
z
" clip-path="url(#pb6b4bdfa31)" style="fill: #0000ff"/>
   </g>
   <g id="patch_19">
    <path d="M 309.660365 195.157188 
L 317.214773 195.157188 
L 317.214773 81.091299 
L 309.660365 81.091299 
z
" clip-path="url(#pb6b4bdfa31)" style="fill: #0000ff"/>
   </g>
   <g id="patch_20">
    <path d="M 324.76918 195.157188 
L 332.323588 195.157188 
L 332.323588 88.530379 
L 324.76918 88.530379 
z
" clip-path="url(#pb6b4bdfa31)" style="fill: #0000ff"/>
   </g>
   <g id="patch_21">
    <path d="M 339.877996 195.157188 
L 347.432404 195.157188 
L 347.432404 93.489766 
L 339.877996 93.489766 
z
" clip-path="url(#pb6b4bdfa31)" style="fill: #0000ff"/>
   </g>
   <g id="patch_22">
    <path d="M 354.986811 195.157188 
L 362.541219 195.157188 
L 362.541219 95.969459 
L 354.986811 95.969459 
z
" clip-path="url(#pb6b4bdfa31)" style="fill: #0000ff"/>
   </g>
   <g id="patch_23">
    <path d="M 370.095627 195.157188 
L 377.650034 195.157188 
L 377.650034 95.969459 
L 370.095627 95.969459 
z
" clip-path="url(#pb6b4bdfa31)" style="fill: #0000ff"/>
   </g>
   <g id="patch_24">
    <path d="M 385.204442 195.157188 
L 392.75885 195.157188 
L 392.75885 98.449152 
L 385.204442 98.449152 
z
" clip-path="url(#pb6b4bdfa31)" style="fill: #0000ff"/>
   </g>
   <g id="patch_25">
    <path d="M 400.313258 195.157188 
L 407.867665 195.157188 
L 407.867665 98.449152 
L 400.313258 98.449152 
z
" clip-path="url(#pb6b4bdfa31)" style="fill: #0000ff"/>
   </g>
   <g id="patch_26">
    <path d="M 415.422073 195.157188 
L 422.976481 195.157188 
L 422.976481 100.928845 
L 415.422073 100.928845 
z
" clip-path="url(#pb6b4bdfa31)" style="fill: #0000ff"/>
   </g>
   <g id="patch_27">
    <path d="M 430.530888 195.157188 
L 438.085296 195.157188 
L 438.085296 100.928845 
L 430.530888 100.928845 
z
" clip-path="url(#pb6b4bdfa31)" style="fill: #0000ff"/>
   </g>
   <g id="patch_28">
    <path d="M 445.639704 195.157188 
L 453.194112 195.157188 
L 453.194112 103.408538 
L 445.639704 103.408538 
z
" clip-path="url(#pb6b4bdfa31)" style="fill: #0000ff"/>
   </g>
   <g id="patch_29">
    <path d="M 460.748519 195.157188 
L 468.302927 195.157188 
L 468.302927 108.367925 
L 460.748519 108.367925 
z
" clip-path="url(#pb6b4bdfa31)" style="fill: #0000ff"/>
   </g>
   <g id="patch_30">
    <path d="M 475.857335 195.157188 
L 483.411742 195.157188 
L 483.411742 113.327311 
L 475.857335 113.327311 
z
" clip-path="url(#pb6b4bdfa31)" style="fill: #0000ff"/>
   </g>
   <g id="patch_31">
    <path d="M 490.96615 195.157188 
L 498.520558 195.157188 
L 498.520558 118.286698 
L 490.96615 118.286698 
z
" clip-path="url(#pb6b4bdfa31)" style="fill: #0000ff"/>
   </g>
   <g id="patch_32">
    <path d="M 506.074966 195.157188 
L 513.629373 195.157188 
L 513.629373 118.286698 
L 506.074966 118.286698 
z
" clip-path="url(#pb6b4bdfa31)" style="fill: #0000ff"/>
   </g>
   <g id="patch_33">
    <path d="M 521.183781 195.157188 
L 528.738189 195.157188 
L 528.738189 120.766391 
L 521.183781 120.766391 
z
" clip-path="url(#pb6b4bdfa31)" style="fill: #0000ff"/>
   </g>
   <g id="patch_34">
    <path d="M 536.292596 195.157188 
L 543.847004 195.157188 
L 543.847004 120.766391 
L 536.292596 120.766391 
z
" clip-path="url(#pb6b4bdfa31)" style="fill: #0000ff"/>
   </g>
   <g id="patch_35">
    <path d="M 551.401412 195.157188 
L 558.95582 195.157188 
L 558.95582 120.766391 
L 551.401412 120.766391 
z
" clip-path="url(#pb6b4bdfa31)" style="fill: #0000ff"/>
   </g>
   <g id="patch_36">
    <path d="M 566.510227 195.157188 
L 574.064635 195.157188 
L 574.064635 123.246084 
L 566.510227 123.246084 
z
" clip-path="url(#pb6b4bdfa31)" style="fill: #0000ff"/>
   </g>
   <g id="patch_37">
    <path d="M 581.619043 195.157188 
L 589.17345 195.157188 
L 589.17345 125.725778 
L 581.619043 125.725778 
z
" clip-path="url(#pb6b4bdfa31)" style="fill: #0000ff"/>
   </g>
   <g id="patch_38">
    <path d="M 596.727858 195.157188 
L 604.282266 195.157188 
L 604.282266 125.725778 
L 596.727858 125.725778 
z
" clip-path="url(#pb6b4bdfa31)" style="fill: #0000ff"/>
   </g>
   <g id="patch_39">
    <path d="M 611.836674 195.157188 
L 619.391081 195.157188 
L 619.391081 125.725778 
L 611.836674 125.725778 
z
" clip-path="url(#pb6b4bdfa31)" style="fill: #0000ff"/>
   </g>
   <g id="patch_40">
    <path d="M 626.945489 195.157188 
L 634.499897 195.157188 
L 634.499897 128.205471 
L 626.945489 128.205471 
z
" clip-path="url(#pb6b4bdfa31)" style="fill: #0000ff"/>
   </g>
   <g id="patch_41">
    <path d="M 642.054304 195.157188 
L 649.608712 195.157188 
L 649.608712 130.685164 
L 642.054304 130.685164 
z
" clip-path="url(#pb6b4bdfa31)" style="fill: #0000ff"/>
   </g>
   <g id="patch_42">
    <path d="M 657.16312 195.157188 
L 664.717528 195.157188 
L 664.717528 130.685164 
L 657.16312 130.685164 
z
" clip-path="url(#pb6b4bdfa31)" style="fill: #0000ff"/>
   </g>
   <g id="patch_43">
    <path d="M 672.271935 195.157188 
L 679.826343 195.157188 
L 679.826343 133.164857 
L 672.271935 133.164857 
z
" clip-path="url(#pb6b4bdfa31)" style="fill: #0000ff"/>
   </g>
   <g id="patch_44">
    <path d="M 687.380751 195.157188 
L 694.935158 195.157188 
L 694.935158 133.164857 
L 687.380751 133.164857 
z
" clip-path="url(#pb6b4bdfa31)" style="fill: #0000ff"/>
   </g>
   <g id="patch_45">
    <path d="M 702.489566 195.157188 
L 710.043974 195.157188 
L 710.043974 135.64455 
L 702.489566 135.64455 
z
" clip-path="url(#pb6b4bdfa31)" style="fill: #0000ff"/>
   </g>
   <g id="patch_46">
    <path d="M 717.598382 195.157188 
L 725.152789 195.157188 
L 725.152789 135.64455 
L 717.598382 135.64455 
z
" clip-path="url(#pb6b4bdfa31)" style="fill: #0000ff"/>
   </g>
   <g id="patch_47">
    <path d="M 732.707197 195.157188 
L 740.261605 195.157188 
L 740.261605 135.64455 
L 732.707197 135.64455 
z
" clip-path="url(#pb6b4bdfa31)" style="fill: #0000ff"/>
   </g>
   <g id="patch_48">
    <path d="M 747.816012 195.157188 
L 755.37042 195.157188 
L 755.37042 135.64455 
L 747.816012 135.64455 
z
" clip-path="url(#pb6b4bdfa31)" style="fill: #0000ff"/>
   </g>
   <g id="patch_49">
    <path d="M 762.924828 195.157188 
L 770.479236 195.157188 
L 770.479236 140.603937 
L 762.924828 140.603937 
z
" clip-path="url(#pb6b4bdfa31)" style="fill: #0000ff"/>
   </g>
   <g id="patch_50">
    <path d="M 778.033643 195.157188 
L 785.588051 195.157188 
L 785.588051 140.603937 
L 778.033643 140.603937 
z
" clip-path="url(#pb6b4bdfa31)" style="fill: #0000ff"/>
   </g>
   <g id="patch_51">
    <path d="M 793.142459 195.157188 
L 800.696866 195.157188 
L 800.696866 140.603937 
L 793.142459 140.603937 
z
" clip-path="url(#pb6b4bdfa31)" style="fill: #0000ff"/>
   </g>
   <g id="patch_52">
    <path d="M 808.251274 195.157188 
L 815.805682 195.157188 
L 815.805682 140.603937 
L 808.251274 140.603937 
z
" clip-path="url(#pb6b4bdfa31)" style="fill: #0000ff"/>
   </g>
   <g id="matplotlib.axis_1">
    <g id="xtick_1">
     <g id="line2d_1">
      <defs>
       <path id="m86156cfbdd" d="M 0 0 
L 0 3.5 
" style="stroke: #000000; stroke-width: 0.8"/>
      </defs>
      <g>
       <use xlink:href="#m86156cfbdd" x="71.696522" y="195.157188" style="stroke: #000000; stroke-width: 0.8"/>
      </g>
     </g>
     <g id="text_1">
      <!-- Seite -->
      <g style="fill: #ffffff" transform="translate(52.298594 225.457461)rotate(-45)scale(0.1 -0.1)">
       <defs>
        <path id="DejaVuSans-53" d="M 3425 4513 
L 3425 3897 
Q 3066 4069 2747 4153 
Q 2428 4238 2131 4238 
Q 1616 4238 1336 4038 
Q 1056 3838 1056 3469 
Q 1056 3159 1242 3001 
Q 1428 2844 1947 2747 
L 2328 2669 
Q 3034 2534 3370 2195 
Q 3706 1856 3706 1288 
Q 3706 609 3251 259 
Q 2797 -91 1919 -91 
Q 1588 -91 1214 -16 
Q 841 59 441 206 
L 441 856 
Q 825 641 1194 531 
Q 1563 422 1919 422 
Q 2459 422 2753 634 
Q 3047 847 3047 1241 
Q 3047 1584 2836 1778 
Q 2625 1972 2144 2069 
L 1759 2144 
Q 1053 2284 737 2584 
Q 422 2884 422 3419 
Q 422 4038 858 4394 
Q 1294 4750 2059 4750 
Q 2388 4750 2728 4690 
Q 3069 4631 3425 4513 
z
" transform="scale(0.015625)"/>
        <path id="DejaVuSans-65" d="M 3597 1894 
L 3597 1613 
L 953 1613 
Q 991 1019 1311 708 
Q 1631 397 2203 397 
Q 2534 397 2845 478 
Q 3156 559 3463 722 
L 3463 178 
Q 3153 47 2828 -22 
Q 2503 -91 2169 -91 
Q 1331 -91 842 396 
Q 353 884 353 1716 
Q 353 2575 817 3079 
Q 1281 3584 2069 3584 
Q 2775 3584 3186 3129 
Q 3597 2675 3597 1894 
z
M 3022 2063 
Q 3016 2534 2758 2815 
Q 2500 3097 2075 3097 
Q 1594 3097 1305 2825 
Q 1016 2553 972 2059 
L 3022 2063 
z
" transform="scale(0.015625)"/>
        <path id="DejaVuSans-69" d="M 603 3500 
L 1178 3500 
L 1178 0 
L 603 0 
L 603 3500 
z
M 603 4863 
L 1178 4863 
L 1178 4134 
L 603 4134 
L 603 4863 
z
" transform="scale(0.015625)"/>
        <path id="DejaVuSans-74" d="M 1172 4494 
L 1172 3500 
L 2356 3500 
L 2356 3053 
L 1172 3053 
L 1172 1153 
Q 1172 725 1289 603 
Q 1406 481 1766 481 
L 2356 481 
L 2356 0 
L 1766 0 
Q 1100 0 847 248 
Q 594 497 594 1153 
L 594 3053 
L 172 3053 
L 172 3500 
L 594 3500 
L 594 4494 
L 1172 4494 
z
" transform="scale(0.015625)"/>
       </defs>
       <use xlink:href="#DejaVuSans-53"/>
       <use xlink:href="#DejaVuSans-65" x="63.476562"/>
       <use xlink:href="#DejaVuSans-69" x="125"/>
       <use xlink:href="#DejaVuSans-74" x="152.783203"/>
       <use xlink:href="#DejaVuSans-65" x="191.992188"/>
      </g>
     </g>
    </g>
    <g id="xtick_2">
     <g id="line2d_2">
      <g>
       <use xlink:href="#m86156cfbdd" x="86.805337" y="195.157188" style="stroke: #000000; stroke-width: 0.8"/>
      </g>
     </g>
     <g id="text_2">
      <!-- unterstützen -->
      <g style="fill: #ffffff" transform="translate(40.089886 252.774985)rotate(-45)scale(0.1 -0.1)">
       <defs>
        <path id="DejaVuSans-75" d="M 544 1381 
L 544 3500 
L 1119 3500 
L 1119 1403 
Q 1119 906 1312 657 
Q 1506 409 1894 409 
Q 2359 409 2629 706 
Q 2900 1003 2900 1516 
L 2900 3500 
L 3475 3500 
L 3475 0 
L 2900 0 
L 2900 538 
Q 2691 219 2414 64 
Q 2138 -91 1772 -91 
Q 1169 -91 856 284 
Q 544 659 544 1381 
z
M 1991 3584 
L 1991 3584 
z
" transform="scale(0.015625)"/>
        <path id="DejaVuSans-6e" d="M 3513 2113 
L 3513 0 
L 2938 0 
L 2938 2094 
Q 2938 2591 2744 2837 
Q 2550 3084 2163 3084 
Q 1697 3084 1428 2787 
Q 1159 2491 1159 1978 
L 1159 0 
L 581 0 
L 581 3500 
L 1159 3500 
L 1159 2956 
Q 1366 3272 1645 3428 
Q 1925 3584 2291 3584 
Q 2894 3584 3203 3211 
Q 3513 2838 3513 2113 
z
" transform="scale(0.015625)"/>
        <path id="DejaVuSans-72" d="M 2631 2963 
Q 2534 3019 2420 3045 
Q 2306 3072 2169 3072 
Q 1681 3072 1420 2755 
Q 1159 2438 1159 1844 
L 1159 0 
L 581 0 
L 581 3500 
L 1159 3500 
L 1159 2956 
Q 1341 3275 1631 3429 
Q 1922 3584 2338 3584 
Q 2397 3584 2469 3576 
Q 2541 3569 2628 3553 
L 2631 2963 
z
" transform="scale(0.015625)"/>
        <path id="DejaVuSans-73" d="M 2834 3397 
L 2834 2853 
Q 2591 2978 2328 3040 
Q 2066 3103 1784 3103 
Q 1356 3103 1142 2972 
Q 928 2841 928 2578 
Q 928 2378 1081 2264 
Q 1234 2150 1697 2047 
L 1894 2003 
Q 2506 1872 2764 1633 
Q 3022 1394 3022 966 
Q 3022 478 2636 193 
Q 2250 -91 1575 -91 
Q 1294 -91 989 -36 
Q 684 19 347 128 
L 347 722 
Q 666 556 975 473 
Q 1284 391 1588 391 
Q 1994 391 2212 530 
Q 2431 669 2431 922 
Q 2431 1156 2273 1281 
Q 2116 1406 1581 1522 
L 1381 1569 
Q 847 1681 609 1914 
Q 372 2147 372 2553 
Q 372 3047 722 3315 
Q 1072 3584 1716 3584 
Q 2034 3584 2315 3537 
Q 2597 3491 2834 3397 
z
" transform="scale(0.015625)"/>
        <path id="DejaVuSans-fc" d="M 544 1381 
L 544 3500 
L 1119 3500 
L 1119 1403 
Q 1119 906 1312 657 
Q 1506 409 1894 409 
Q 2359 409 2629 706 
Q 2900 1003 2900 1516 
L 2900 3500 
L 3475 3500 
L 3475 0 
L 2900 0 
L 2900 538 
Q 2691 219 2414 64 
Q 2138 -91 1772 -91 
Q 1169 -91 856 284 
Q 544 659 544 1381 
z
M 1991 3584 
L 1991 3584 
z
M 2278 4850 
L 2912 4850 
L 2912 4219 
L 2278 4219 
L 2278 4850 
z
M 1056 4850 
L 1690 4850 
L 1690 4219 
L 1056 4219 
L 1056 4850 
z
" transform="scale(0.015625)"/>
        <path id="DejaVuSans-7a" d="M 353 3500 
L 3084 3500 
L 3084 2975 
L 922 459 
L 3084 459 
L 3084 0 
L 275 0 
L 275 525 
L 2438 3041 
L 353 3041 
L 353 3500 
z
" transform="scale(0.015625)"/>
       </defs>
       <use xlink:href="#DejaVuSans-75"/>
       <use xlink:href="#DejaVuSans-6e" x="63.378906"/>
       <use xlink:href="#DejaVuSans-74" x="126.757812"/>
       <use xlink:href="#DejaVuSans-65" x="165.966797"/>
       <use xlink:href="#DejaVuSans-72" x="227.490234"/>
       <use xlink:href="#DejaVuSans-73" x="268.603516"/>
       <use xlink:href="#DejaVuSans-74" x="320.703125"/>
       <use xlink:href="#DejaVuSans-fc" x="359.912109"/>
       <use xlink:href="#DejaVuSans-74" x="423.291016"/>
       <use xlink:href="#DejaVuSans-7a" x="462.5"/>
       <use xlink:href="#DejaVuSans-65" x="514.990234"/>
       <use xlink:href="#DejaVuSans-6e" x="576.513672"/>
      </g>
     </g>
    </g>
    <g id="xtick_3">
     <g id="line2d_3">
      <g>
       <use xlink:href="#m86156cfbdd" x="101.914153" y="195.157188" style="stroke: #000000; stroke-width: 0.8"/>
      </g>
     </g>
     <g id="text_3">
      <!-- Europa -->
      <g style="fill: #ffffff" transform="translate(75.597627 232.376059)rotate(-45)scale(0.1 -0.1)">
       <defs>
        <path id="DejaVuSans-45" d="M 628 4666 
L 3578 4666 
L 3578 4134 
L 1259 4134 
L 1259 2753 
L 3481 2753 
L 3481 2222 
L 1259 2222 
L 1259 531 
L 3634 531 
L 3634 0 
L 628 0 
L 628 4666 
z
" transform="scale(0.015625)"/>
        <path id="DejaVuSans-6f" d="M 1959 3097 
Q 1497 3097 1228 2736 
Q 959 2375 959 1747 
Q 959 1119 1226 758 
Q 1494 397 1959 397 
Q 2419 397 2687 759 
Q 2956 1122 2956 1747 
Q 2956 2369 2687 2733 
Q 2419 3097 1959 3097 
z
M 1959 3584 
Q 2709 3584 3137 3096 
Q 3566 2609 3566 1747 
Q 3566 888 3137 398 
Q 2709 -91 1959 -91 
Q 1206 -91 779 398 
Q 353 888 353 1747 
Q 353 2609 779 3096 
Q 1206 3584 1959 3584 
z
" transform="scale(0.015625)"/>
        <path id="DejaVuSans-70" d="M 1159 525 
L 1159 -1331 
L 581 -1331 
L 581 3500 
L 1159 3500 
L 1159 2969 
Q 1341 3281 1617 3432 
Q 1894 3584 2278 3584 
Q 2916 3584 3314 3078 
Q 3713 2572 3713 1747 
Q 3713 922 3314 415 
Q 2916 -91 2278 -91 
Q 1894 -91 1617 61 
Q 1341 213 1159 525 
z
M 3116 1747 
Q 3116 2381 2855 2742 
Q 2594 3103 2138 3103 
Q 1681 3103 1420 2742 
Q 1159 2381 1159 1747 
Q 1159 1113 1420 752 
Q 1681 391 2138 391 
Q 2594 391 2855 752 
Q 3116 1113 3116 1747 
z
" transform="scale(0.015625)"/>
        <path id="DejaVuSans-61" d="M 2194 1759 
Q 1497 1759 1228 1600 
Q 959 1441 959 1056 
Q 959 750 1161 570 
Q 1363 391 1709 391 
Q 2188 391 2477 730 
Q 2766 1069 2766 1631 
L 2766 1759 
L 2194 1759 
z
M 3341 1997 
L 3341 0 
L 2766 0 
L 2766 531 
Q 2569 213 2275 61 
Q 1981 -91 1556 -91 
Q 1019 -91 701 211 
Q 384 513 384 1019 
Q 384 1609 779 1909 
Q 1175 2209 1959 2209 
L 2766 2209 
L 2766 2266 
Q 2766 2663 2505 2880 
Q 2244 3097 1772 3097 
Q 1472 3097 1187 3025 
Q 903 2953 641 2809 
L 641 3341 
Q 956 3463 1253 3523 
Q 1550 3584 1831 3584 
Q 2591 3584 2966 3190 
Q 3341 2797 3341 1997 
z
" transform="scale(0.015625)"/>
       </defs>
       <use xlink:href="#DejaVuSans-45"/>
       <use xlink:href="#DejaVuSans-75" x="63.183594"/>
       <use xlink:href="#DejaVuSans-72" x="126.5625"/>
       <use xlink:href="#DejaVuSans-6f" x="165.425781"/>
       <use xlink:href="#DejaVuSans-70" x="226.607422"/>
       <use xlink:href="#DejaVuSans-61" x="290.083984"/>
      </g>
     </g>
    </g>
    <g id="xtick_4">
     <g id="line2d_4">
      <g>
       <use xlink:href="#m86156cfbdd" x="117.022968" y="195.157188" style="stroke: #000000; stroke-width: 0.8"/>
      </g>
     </g>
     <g id="text_4">
      <!-- Zukunftsprogramm -->
      <g style="fill: #ffffff" transform="translate(47.502218 275.580284)rotate(-45)scale(0.1 -0.1)">
       <defs>
        <path id="DejaVuSans-5a" d="M 359 4666 
L 4025 4666 
L 4025 4184 
L 1075 531 
L 4097 531 
L 4097 0 
L 288 0 
L 288 481 
L 3238 4134 
L 359 4134 
L 359 4666 
z
" transform="scale(0.015625)"/>
        <path id="DejaVuSans-6b" d="M 581 4863 
L 1159 4863 
L 1159 1991 
L 2875 3500 
L 3609 3500 
L 1753 1863 
L 3688 0 
L 2938 0 
L 1159 1709 
L 1159 0 
L 581 0 
L 581 4863 
z
" transform="scale(0.015625)"/>
        <path id="DejaVuSans-66" d="M 2375 4863 
L 2375 4384 
L 1825 4384 
Q 1516 4384 1395 4259 
Q 1275 4134 1275 3809 
L 1275 3500 
L 2222 3500 
L 2222 3053 
L 1275 3053 
L 1275 0 
L 697 0 
L 697 3053 
L 147 3053 
L 147 3500 
L 697 3500 
L 697 3744 
Q 697 4328 969 4595 
Q 1241 4863 1831 4863 
L 2375 4863 
z
" transform="scale(0.015625)"/>
        <path id="DejaVuSans-67" d="M 2906 1791 
Q 2906 2416 2648 2759 
Q 2391 3103 1925 3103 
Q 1463 3103 1205 2759 
Q 947 2416 947 1791 
Q 947 1169 1205 825 
Q 1463 481 1925 481 
Q 2391 481 2648 825 
Q 2906 1169 2906 1791 
z
M 3481 434 
Q 3481 -459 3084 -895 
Q 2688 -1331 1869 -1331 
Q 1566 -1331 1297 -1286 
Q 1028 -1241 775 -1147 
L 775 -588 
Q 1028 -725 1275 -790 
Q 1522 -856 1778 -856 
Q 2344 -856 2625 -561 
Q 2906 -266 2906 331 
L 2906 616 
Q 2728 306 2450 153 
Q 2172 0 1784 0 
Q 1141 0 747 490 
Q 353 981 353 1791 
Q 353 2603 747 3093 
Q 1141 3584 1784 3584 
Q 2172 3584 2450 3431 
Q 2728 3278 2906 2969 
L 2906 3500 
L 3481 3500 
L 3481 434 
z
" transform="scale(0.015625)"/>
        <path id="DejaVuSans-6d" d="M 3328 2828 
Q 3544 3216 3844 3400 
Q 4144 3584 4550 3584 
Q 5097 3584 5394 3201 
Q 5691 2819 5691 2113 
L 5691 0 
L 5113 0 
L 5113 2094 
Q 5113 2597 4934 2840 
Q 4756 3084 4391 3084 
Q 3944 3084 3684 2787 
Q 3425 2491 3425 1978 
L 3425 0 
L 2847 0 
L 2847 2094 
Q 2847 2600 2669 2842 
Q 2491 3084 2119 3084 
Q 1678 3084 1418 2786 
Q 1159 2488 1159 1978 
L 1159 0 
L 581 0 
L 581 3500 
L 1159 3500 
L 1159 2956 
Q 1356 3278 1631 3431 
Q 1906 3584 2284 3584 
Q 2666 3584 2933 3390 
Q 3200 3197 3328 2828 
z
" transform="scale(0.015625)"/>
       </defs>
       <use xlink:href="#DejaVuSans-5a"/>
       <use xlink:href="#DejaVuSans-75" x="68.505859"/>
       <use xlink:href="#DejaVuSans-6b" x="131.884766"/>
       <use xlink:href="#DejaVuSans-75" x="186.669922"/>
       <use xlink:href="#DejaVuSans-6e" x="250.048828"/>
       <use xlink:href="#DejaVuSans-66" x="313.427734"/>
       <use xlink:href="#DejaVuSans-74" x="346.882812"/>
       <use xlink:href="#DejaVuSans-73" x="386.091797"/>
       <use xlink:href="#DejaVuSans-70" x="438.191406"/>
       <use xlink:href="#DejaVuSans-72" x="501.667969"/>
       <use xlink:href="#DejaVuSans-6f" x="540.53125"/>
       <use xlink:href="#DejaVuSans-67" x="601.712891"/>
       <use xlink:href="#DejaVuSans-72" x="665.189453"/>
       <use xlink:href="#DejaVuSans-61" x="706.302734"/>
       <use xlink:href="#DejaVuSans-6d" x="767.582031"/>
       <use xlink:href="#DejaVuSans-6d" x="864.994141"/>
      </g>
     </g>
    </g>
    <g id="xtick_5">
     <g id="line2d_5">
      <g>
       <use xlink:href="#m86156cfbdd" x="132.131784" y="195.157188" style="stroke: #000000; stroke-width: 0.8"/>
      </g>
     </g>
     <g id="text_5">
      <!-- Kapitel -->
      <g style="fill: #ffffff" transform="translate(106.273773 231.917545)rotate(-45)scale(0.1 -0.1)">
       <defs>
        <path id="DejaVuSans-4b" d="M 628 4666 
L 1259 4666 
L 1259 2694 
L 3353 4666 
L 4166 4666 
L 1850 2491 
L 4331 0 
L 3500 0 
L 1259 2247 
L 1259 0 
L 628 0 
L 628 4666 
z
" transform="scale(0.015625)"/>
        <path id="DejaVuSans-6c" d="M 603 4863 
L 1178 4863 
L 1178 0 
L 603 0 
L 603 4863 
z
" transform="scale(0.015625)"/>
       </defs>
       <use xlink:href="#DejaVuSans-4b"/>
       <use xlink:href="#DejaVuSans-61" x="63.826172"/>
       <use xlink:href="#DejaVuSans-70" x="125.105469"/>
       <use xlink:href="#DejaVuSans-69" x="188.582031"/>
       <use xlink:href="#DejaVuSans-74" x="216.365234"/>
       <use xlink:href="#DejaVuSans-65" x="255.574219"/>
       <use xlink:href="#DejaVuSans-6c" x="317.097656"/>
      </g>
     </g>
    </g>
    <g id="xtick_6">
     <g id="line2d_6">
      <g>
       <use xlink:href="#m86156cfbdd" x="147.240599" y="195.157188" style="stroke: #000000; stroke-width: 0.8"/>
      </g>
     </g>
     <g id="text_6">
      <!-- SPD-Parteivorstand -->
      <g style="fill: #ffffff" transform="translate(77.570694 275.729439)rotate(-45)scale(0.1 -0.1)">
       <defs>
        <path id="DejaVuSans-50" d="M 1259 4147 
L 1259 2394 
L 2053 2394 
Q 2494 2394 2734 2622 
Q 2975 2850 2975 3272 
Q 2975 3691 2734 3919 
Q 2494 4147 2053 4147 
L 1259 4147 
z
M 628 4666 
L 2053 4666 
Q 2838 4666 3239 4311 
Q 3641 3956 3641 3272 
Q 3641 2581 3239 2228 
Q 2838 1875 2053 1875 
L 1259 1875 
L 1259 0 
L 628 0 
L 628 4666 
z
" transform="scale(0.015625)"/>
        <path id="DejaVuSans-44" d="M 1259 4147 
L 1259 519 
L 2022 519 
Q 2988 519 3436 956 
Q 3884 1394 3884 2338 
Q 3884 3275 3436 3711 
Q 2988 4147 2022 4147 
L 1259 4147 
z
M 628 4666 
L 1925 4666 
Q 3281 4666 3915 4102 
Q 4550 3538 4550 2338 
Q 4550 1131 3912 565 
Q 3275 0 1925 0 
L 628 0 
L 628 4666 
z
" transform="scale(0.015625)"/>
        <path id="DejaVuSans-2d" d="M 313 2009 
L 1997 2009 
L 1997 1497 
L 313 1497 
L 313 2009 
z
" transform="scale(0.015625)"/>
        <path id="DejaVuSans-76" d="M 191 3500 
L 800 3500 
L 1894 563 
L 2988 3500 
L 3597 3500 
L 2284 0 
L 1503 0 
L 191 3500 
z
" transform="scale(0.015625)"/>
        <path id="DejaVuSans-64" d="M 2906 2969 
L 2906 4863 
L 3481 4863 
L 3481 0 
L 2906 0 
L 2906 525 
Q 2725 213 2448 61 
Q 2172 -91 1784 -91 
Q 1150 -91 751 415 
Q 353 922 353 1747 
Q 353 2572 751 3078 
Q 1150 3584 1784 3584 
Q 2172 3584 2448 3432 
Q 2725 3281 2906 2969 
z
M 947 1747 
Q 947 1113 1208 752 
Q 1469 391 1925 391 
Q 2381 391 2643 752 
Q 2906 1113 2906 1747 
Q 2906 2381 2643 2742 
Q 2381 3103 1925 3103 
Q 1469 3103 1208 2742 
Q 947 2381 947 1747 
z
" transform="scale(0.015625)"/>
       </defs>
       <use xlink:href="#DejaVuSans-53"/>
       <use xlink:href="#DejaVuSans-50" x="63.476562"/>
       <use xlink:href="#DejaVuSans-44" x="123.779297"/>
       <use xlink:href="#DejaVuSans-2d" x="200.78125"/>
       <use xlink:href="#DejaVuSans-50" x="236.865234"/>
       <use xlink:href="#DejaVuSans-61" x="292.667969"/>
       <use xlink:href="#DejaVuSans-72" x="353.947266"/>
       <use xlink:href="#DejaVuSans-74" x="395.060547"/>
       <use xlink:href="#DejaVuSans-65" x="434.269531"/>
       <use xlink:href="#DejaVuSans-69" x="495.792969"/>
       <use xlink:href="#DejaVuSans-76" x="523.576172"/>
       <use xlink:href="#DejaVuSans-6f" x="582.755859"/>
       <use xlink:href="#DejaVuSans-72" x="643.9375"/>
       <use xlink:href="#DejaVuSans-73" x="685.050781"/>
       <use xlink:href="#DejaVuSans-74" x="737.150391"/>
       <use xlink:href="#DejaVuSans-61" x="776.359375"/>
       <use xlink:href="#DejaVuSans-6e" x="837.638672"/>
       <use xlink:href="#DejaVuSans-64" x="901.017578"/>
      </g>
     </g>
    </g>
    <g id="xtick_7">
     <g id="line2d_7">
      <g>
       <use xlink:href="#m86156cfbdd" x="162.349415" y="195.157188" style="stroke: #000000; stroke-width: 0.8"/>
      </g>
     </g>
     <g id="text_7">
      <!-- setzen -->
      <g style="fill: #ffffff" transform="translate(137.528862 230.880086)rotate(-45)scale(0.1 -0.1)">
       <use xlink:href="#DejaVuSans-73"/>
       <use xlink:href="#DejaVuSans-65" x="52.099609"/>
       <use xlink:href="#DejaVuSans-74" x="113.623047"/>
       <use xlink:href="#DejaVuSans-7a" x="152.832031"/>
       <use xlink:href="#DejaVuSans-65" x="205.322266"/>
       <use xlink:href="#DejaVuSans-6e" x="266.845703"/>
      </g>
     </g>
    </g>
    <g id="xtick_8">
     <g id="line2d_8">
      <g>
       <use xlink:href="#m86156cfbdd" x="177.45823" y="195.157188" style="stroke: #000000; stroke-width: 0.8"/>
      </g>
     </g>
     <g id="text_8">
      <!-- Deutschland -->
      <g style="fill: #ffffff" transform="translate(131.617823 251.89994)rotate(-45)scale(0.1 -0.1)">
       <defs>
        <path id="DejaVuSans-63" d="M 3122 3366 
L 3122 2828 
Q 2878 2963 2633 3030 
Q 2388 3097 2138 3097 
Q 1578 3097 1268 2742 
Q 959 2388 959 1747 
Q 959 1106 1268 751 
Q 1578 397 2138 397 
Q 2388 397 2633 464 
Q 2878 531 3122 666 
L 3122 134 
Q 2881 22 2623 -34 
Q 2366 -91 2075 -91 
Q 1284 -91 818 406 
Q 353 903 353 1747 
Q 353 2603 823 3093 
Q 1294 3584 2113 3584 
Q 2378 3584 2631 3529 
Q 2884 3475 3122 3366 
z
" transform="scale(0.015625)"/>
        <path id="DejaVuSans-68" d="M 3513 2113 
L 3513 0 
L 2938 0 
L 2938 2094 
Q 2938 2591 2744 2837 
Q 2550 3084 2163 3084 
Q 1697 3084 1428 2787 
Q 1159 2491 1159 1978 
L 1159 0 
L 581 0 
L 581 4863 
L 1159 4863 
L 1159 2956 
Q 1366 3272 1645 3428 
Q 1925 3584 2291 3584 
Q 2894 3584 3203 3211 
Q 3513 2838 3513 2113 
z
" transform="scale(0.015625)"/>
       </defs>
       <use xlink:href="#DejaVuSans-44"/>
       <use xlink:href="#DejaVuSans-65" x="77.001953"/>
       <use xlink:href="#DejaVuSans-75" x="138.525391"/>
       <use xlink:href="#DejaVuSans-74" x="201.904297"/>
       <use xlink:href="#DejaVuSans-73" x="241.113281"/>
       <use xlink:href="#DejaVuSans-63" x="293.212891"/>
       <use xlink:href="#DejaVuSans-68" x="348.193359"/>
       <use xlink:href="#DejaVuSans-6c" x="411.572266"/>
       <use xlink:href="#DejaVuSans-61" x="439.355469"/>
       <use xlink:href="#DejaVuSans-6e" x="500.634766"/>
       <use xlink:href="#DejaVuSans-64" x="564.013672"/>
      </g>
     </g>
    </g>
    <g id="xtick_9">
     <g id="line2d_9">
      <g>
       <use xlink:href="#m86156cfbdd" x="192.567045" y="195.157188" style="stroke: #000000; stroke-width: 0.8"/>
      </g>
     </g>
     <g id="text_9">
      <!-- Mensch -->
      <g style="fill: #ffffff" transform="translate(164.110417 234.516162)rotate(-45)scale(0.1 -0.1)">
       <defs>
        <path id="DejaVuSans-4d" d="M 628 4666 
L 1569 4666 
L 2759 1491 
L 3956 4666 
L 4897 4666 
L 4897 0 
L 4281 0 
L 4281 4097 
L 3078 897 
L 2444 897 
L 1241 4097 
L 1241 0 
L 628 0 
L 628 4666 
z
" transform="scale(0.015625)"/>
       </defs>
       <use xlink:href="#DejaVuSans-4d"/>
       <use xlink:href="#DejaVuSans-65" x="86.279297"/>
       <use xlink:href="#DejaVuSans-6e" x="147.802734"/>
       <use xlink:href="#DejaVuSans-73" x="211.181641"/>
       <use xlink:href="#DejaVuSans-63" x="263.28125"/>
       <use xlink:href="#DejaVuSans-68" x="318.261719"/>
      </g>
     </g>
    </g>
    <g id="xtick_10">
     <g id="line2d_10">
      <g>
       <use xlink:href="#m86156cfbdd" x="207.675861" y="195.157188" style="stroke: #000000; stroke-width: 0.8"/>
      </g>
     </g>
     <g id="text_10">
      <!-- schaffen -->
      <g style="fill: #ffffff" transform="translate(176.008526 237.726869)rotate(-45)scale(0.1 -0.1)">
       <use xlink:href="#DejaVuSans-73"/>
       <use xlink:href="#DejaVuSans-63" x="52.099609"/>
       <use xlink:href="#DejaVuSans-68" x="107.080078"/>
       <use xlink:href="#DejaVuSans-61" x="170.458984"/>
       <use xlink:href="#DejaVuSans-66" x="231.738281"/>
       <use xlink:href="#DejaVuSans-66" x="266.943359"/>
       <use xlink:href="#DejaVuSans-65" x="302.148438"/>
       <use xlink:href="#DejaVuSans-6e" x="363.671875"/>
      </g>
     </g>
    </g>
    <g id="xtick_11">
     <g id="line2d_11">
      <g>
       <use xlink:href="#m86156cfbdd" x="222.784676" y="195.157188" style="stroke: #000000; stroke-width: 0.8"/>
      </g>
     </g>
     <g id="text_11">
      <!-- fördern -->
      <g style="fill: #ffffff" transform="translate(195.610784 233.233426)rotate(-45)scale(0.1 -0.1)">
       <defs>
        <path id="DejaVuSans-f6" d="M 1959 3097 
Q 1497 3097 1228 2736 
Q 959 2375 959 1747 
Q 959 1119 1226 758 
Q 1494 397 1959 397 
Q 2419 397 2687 759 
Q 2956 1122 2956 1747 
Q 2956 2369 2687 2733 
Q 2419 3097 1959 3097 
z
M 1959 3584 
Q 2709 3584 3137 3096 
Q 3566 2609 3566 1747 
Q 3566 888 3137 398 
Q 2709 -91 1959 -91 
Q 1206 -91 779 398 
Q 353 888 353 1747 
Q 353 2609 779 3096 
Q 1206 3584 1959 3584 
z
M 2254 4850 
L 2888 4850 
L 2888 4219 
L 2254 4219 
L 2254 4850 
z
M 1032 4850 
L 1666 4850 
L 1666 4219 
L 1032 4219 
L 1032 4850 
z
" transform="scale(0.015625)"/>
       </defs>
       <use xlink:href="#DejaVuSans-66"/>
       <use xlink:href="#DejaVuSans-f6" x="35.205078"/>
       <use xlink:href="#DejaVuSans-72" x="96.386719"/>
       <use xlink:href="#DejaVuSans-64" x="135.75"/>
       <use xlink:href="#DejaVuSans-65" x="199.226562"/>
       <use xlink:href="#DejaVuSans-72" x="260.75"/>
       <use xlink:href="#DejaVuSans-6e" x="300.113281"/>
      </g>
     </g>
    </g>
    <g id="xtick_12">
     <g id="line2d_12">
      <g>
       <use xlink:href="#m86156cfbdd" x="237.893492" y="195.157188" style="stroke: #000000; stroke-width: 0.8"/>
      </g>
     </g>
     <g id="text_12">
      <!-- brauchen -->
      <g style="fill: #ffffff" transform="translate(203.01103 240.941995)rotate(-45)scale(0.1 -0.1)">
       <defs>
        <path id="DejaVuSans-62" d="M 3116 1747 
Q 3116 2381 2855 2742 
Q 2594 3103 2138 3103 
Q 1681 3103 1420 2742 
Q 1159 2381 1159 1747 
Q 1159 1113 1420 752 
Q 1681 391 2138 391 
Q 2594 391 2855 752 
Q 3116 1113 3116 1747 
z
M 1159 2969 
Q 1341 3281 1617 3432 
Q 1894 3584 2278 3584 
Q 2916 3584 3314 3078 
Q 3713 2572 3713 1747 
Q 3713 922 3314 415 
Q 2916 -91 2278 -91 
Q 1894 -91 1617 61 
Q 1341 213 1159 525 
L 1159 0 
L 581 0 
L 581 4863 
L 1159 4863 
L 1159 2969 
z
" transform="scale(0.015625)"/>
       </defs>
       <use xlink:href="#DejaVuSans-62"/>
       <use xlink:href="#DejaVuSans-72" x="63.476562"/>
       <use xlink:href="#DejaVuSans-61" x="104.589844"/>
       <use xlink:href="#DejaVuSans-75" x="165.869141"/>
       <use xlink:href="#DejaVuSans-63" x="229.248047"/>
       <use xlink:href="#DejaVuSans-68" x="284.228516"/>
       <use xlink:href="#DejaVuSans-65" x="347.607422"/>
       <use xlink:href="#DejaVuSans-6e" x="409.130859"/>
      </g>
     </g>
    </g>
    <g id="xtick_13">
     <g id="line2d_13">
      <g>
       <use xlink:href="#m86156cfbdd" x="253.002307" y="195.157188" style="stroke: #000000; stroke-width: 0.8"/>
      </g>
     </g>
     <g id="text_13">
      <!-- Ziel -->
      <g style="fill: #ffffff" transform="translate(238.408286 220.653555)rotate(-45)scale(0.1 -0.1)">
       <use xlink:href="#DejaVuSans-5a"/>
       <use xlink:href="#DejaVuSans-69" x="68.505859"/>
       <use xlink:href="#DejaVuSans-65" x="96.289062"/>
       <use xlink:href="#DejaVuSans-6c" x="157.8125"/>
      </g>
     </g>
    </g>
    <g id="xtick_14">
     <g id="line2d_14">
      <g>
       <use xlink:href="#m86156cfbdd" x="268.111123" y="195.157188" style="stroke: #000000; stroke-width: 0.8"/>
      </g>
     </g>
     <g id="text_14">
      <!-- Gesellschaft -->
      <g style="fill: #ffffff" transform="translate(223.323642 250.847014)rotate(-45)scale(0.1 -0.1)">
       <defs>
        <path id="DejaVuSans-47" d="M 3809 666 
L 3809 1919 
L 2778 1919 
L 2778 2438 
L 4434 2438 
L 4434 434 
Q 4069 175 3628 42 
Q 3188 -91 2688 -91 
Q 1594 -91 976 548 
Q 359 1188 359 2328 
Q 359 3472 976 4111 
Q 1594 4750 2688 4750 
Q 3144 4750 3555 4637 
Q 3966 4525 4313 4306 
L 4313 3634 
Q 3963 3931 3569 4081 
Q 3175 4231 2741 4231 
Q 1884 4231 1454 3753 
Q 1025 3275 1025 2328 
Q 1025 1384 1454 906 
Q 1884 428 2741 428 
Q 3075 428 3337 486 
Q 3600 544 3809 666 
z
" transform="scale(0.015625)"/>
       </defs>
       <use xlink:href="#DejaVuSans-47"/>
       <use xlink:href="#DejaVuSans-65" x="77.490234"/>
       <use xlink:href="#DejaVuSans-73" x="139.013672"/>
       <use xlink:href="#DejaVuSans-65" x="191.113281"/>
       <use xlink:href="#DejaVuSans-6c" x="252.636719"/>
       <use xlink:href="#DejaVuSans-6c" x="280.419922"/>
       <use xlink:href="#DejaVuSans-73" x="308.203125"/>
       <use xlink:href="#DejaVuSans-63" x="360.302734"/>
       <use xlink:href="#DejaVuSans-68" x="415.283203"/>
       <use xlink:href="#DejaVuSans-61" x="478.662109"/>
       <use xlink:href="#DejaVuSans-66" x="539.941406"/>
       <use xlink:href="#DejaVuSans-74" x="573.396484"/>
      </g>
     </g>
    </g>
    <g id="xtick_15">
     <g id="line2d_15">
      <g>
       <use xlink:href="#m86156cfbdd" x="283.219938" y="195.157188" style="stroke: #000000; stroke-width: 0.8"/>
      </g>
     </g>
     <g id="text_15">
      <!-- Arbeit -->
      <g style="fill: #ffffff" transform="translate(260.429003 228.850469)rotate(-45)scale(0.1 -0.1)">
       <defs>
        <path id="DejaVuSans-41" d="M 2188 4044 
L 1331 1722 
L 3047 1722 
L 2188 4044 
z
M 1831 4666 
L 2547 4666 
L 4325 0 
L 3669 0 
L 3244 1197 
L 1141 1197 
L 716 0 
L 50 0 
L 1831 4666 
z
" transform="scale(0.015625)"/>
       </defs>
       <use xlink:href="#DejaVuSans-41"/>
       <use xlink:href="#DejaVuSans-72" x="68.408203"/>
       <use xlink:href="#DejaVuSans-62" x="109.521484"/>
       <use xlink:href="#DejaVuSans-65" x="172.998047"/>
       <use xlink:href="#DejaVuSans-69" x="234.521484"/>
       <use xlink:href="#DejaVuSans-74" x="262.304688"/>
      </g>
     </g>
    </g>
    <g id="xtick_16">
     <g id="line2d_16">
      <g>
       <use xlink:href="#m86156cfbdd" x="298.328753" y="195.157188" style="stroke: #000000; stroke-width: 0.8"/>
      </g>
     </g>
     <g id="text_16">
      <!-- Kind -->
      <g style="fill: #ffffff" transform="translate(281.286375 223.101912)rotate(-45)scale(0.1 -0.1)">
       <use xlink:href="#DejaVuSans-4b"/>
       <use xlink:href="#DejaVuSans-69" x="65.576172"/>
       <use xlink:href="#DejaVuSans-6e" x="93.359375"/>
       <use xlink:href="#DejaVuSans-64" x="156.738281"/>
      </g>
     </g>
    </g>
    <g id="xtick_17">
     <g id="line2d_17">
      <g>
       <use xlink:href="#m86156cfbdd" x="313.437569" y="195.157188" style="stroke: #000000; stroke-width: 0.8"/>
      </g>
     </g>
     <g id="text_17">
      <!-- stärken -->
      <g style="fill: #ffffff" transform="translate(285.600764 233.896339)rotate(-45)scale(0.1 -0.1)">
       <defs>
        <path id="DejaVuSans-e4" d="M 2194 1759 
Q 1497 1759 1228 1600 
Q 959 1441 959 1056 
Q 959 750 1161 570 
Q 1363 391 1709 391 
Q 2188 391 2477 730 
Q 2766 1069 2766 1631 
L 2766 1759 
L 2194 1759 
z
M 3341 1997 
L 3341 0 
L 2766 0 
L 2766 531 
Q 2569 213 2275 61 
Q 1981 -91 1556 -91 
Q 1019 -91 701 211 
Q 384 513 384 1019 
Q 384 1609 779 1909 
Q 1175 2209 1959 2209 
L 2766 2209 
L 2766 2266 
Q 2766 2663 2505 2880 
Q 2244 3097 1772 3097 
Q 1472 3097 1187 3025 
Q 903 2953 641 2809 
L 641 3341 
Q 956 3463 1253 3523 
Q 1550 3584 1831 3584 
Q 2591 3584 2966 3190 
Q 3341 2797 3341 1997 
z
M 2150 4850 
L 2784 4850 
L 2784 4219 
L 2150 4219 
L 2150 4850 
z
M 928 4850 
L 1562 4850 
L 1562 4219 
L 928 4219 
L 928 4850 
z
" transform="scale(0.015625)"/>
       </defs>
       <use xlink:href="#DejaVuSans-73"/>
       <use xlink:href="#DejaVuSans-74" x="52.099609"/>
       <use xlink:href="#DejaVuSans-e4" x="91.308594"/>
       <use xlink:href="#DejaVuSans-72" x="152.587891"/>
       <use xlink:href="#DejaVuSans-6b" x="193.701172"/>
       <use xlink:href="#DejaVuSans-65" x="247.986328"/>
       <use xlink:href="#DejaVuSans-6e" x="309.509766"/>
      </g>
     </g>
    </g>
    <g id="xtick_18">
     <g id="line2d_18">
      <g>
       <use xlink:href="#m86156cfbdd" x="328.546384" y="195.157188" style="stroke: #000000; stroke-width: 0.8"/>
      </g>
     </g>
     <g id="text_18">
      <!-- Land -->
      <g style="fill: #ffffff" transform="translate(309.832361 224.773556)rotate(-45)scale(0.1 -0.1)">
       <defs>
        <path id="DejaVuSans-4c" d="M 628 4666 
L 1259 4666 
L 1259 531 
L 3531 531 
L 3531 0 
L 628 0 
L 628 4666 
z
" transform="scale(0.015625)"/>
       </defs>
       <use xlink:href="#DejaVuSans-4c"/>
       <use xlink:href="#DejaVuSans-61" x="55.712891"/>
       <use xlink:href="#DejaVuSans-6e" x="116.992188"/>
       <use xlink:href="#DejaVuSans-64" x="180.371094"/>
      </g>
     </g>
    </g>
    <g id="xtick_19">
     <g id="line2d_19">
      <g>
       <use xlink:href="#m86156cfbdd" x="343.6552" y="195.157188" style="stroke: #000000; stroke-width: 0.8"/>
      </g>
     </g>
     <g id="text_19">
      <!-- sorgen -->
      <g style="fill: #ffffff" transform="translate(318.070088 231.644646)rotate(-45)scale(0.1 -0.1)">
       <use xlink:href="#DejaVuSans-73"/>
       <use xlink:href="#DejaVuSans-6f" x="52.099609"/>
       <use xlink:href="#DejaVuSans-72" x="113.28125"/>
       <use xlink:href="#DejaVuSans-67" x="152.644531"/>
       <use xlink:href="#DejaVuSans-65" x="216.121094"/>
       <use xlink:href="#DejaVuSans-6e" x="277.644531"/>
      </g>
     </g>
    </g>
    <g id="xtick_20">
     <g id="line2d_20">
      <g>
       <use xlink:href="#m86156cfbdd" x="358.764015" y="195.157188" style="stroke: #000000; stroke-width: 0.8"/>
      </g>
     </g>
     <g id="text_20">
      <!-- digital -->
      <g style="fill: #ffffff" transform="translate(335.316796 229.506752)rotate(-45)scale(0.1 -0.1)">
       <use xlink:href="#DejaVuSans-64"/>
       <use xlink:href="#DejaVuSans-69" x="63.476562"/>
       <use xlink:href="#DejaVuSans-67" x="91.259766"/>
       <use xlink:href="#DejaVuSans-69" x="154.736328"/>
       <use xlink:href="#DejaVuSans-74" x="182.519531"/>
       <use xlink:href="#DejaVuSans-61" x="221.728516"/>
       <use xlink:href="#DejaVuSans-6c" x="283.007812"/>
      </g>
     </g>
    </g>
    <g id="xtick_21">
     <g id="line2d_21">
      <g>
       <use xlink:href="#m86156cfbdd" x="373.872831" y="195.157188" style="stroke: #000000; stroke-width: 0.8"/>
      </g>
     </g>
     <g id="text_21">
      <!-- Unternehmen -->
      <g style="fill: #ffffff" transform="translate(323.806356 256.126008)rotate(-45)scale(0.1 -0.1)">
       <defs>
        <path id="DejaVuSans-55" d="M 556 4666 
L 1191 4666 
L 1191 1831 
Q 1191 1081 1462 751 
Q 1734 422 2344 422 
Q 2950 422 3222 751 
Q 3494 1081 3494 1831 
L 3494 4666 
L 4128 4666 
L 4128 1753 
Q 4128 841 3676 375 
Q 3225 -91 2344 -91 
Q 1459 -91 1007 375 
Q 556 841 556 1753 
L 556 4666 
z
" transform="scale(0.015625)"/>
       </defs>
       <use xlink:href="#DejaVuSans-55"/>
       <use xlink:href="#DejaVuSans-6e" x="73.193359"/>
       <use xlink:href="#DejaVuSans-74" x="136.572266"/>
       <use xlink:href="#DejaVuSans-65" x="175.78125"/>
       <use xlink:href="#DejaVuSans-72" x="237.304688"/>
       <use xlink:href="#DejaVuSans-6e" x="276.667969"/>
       <use xlink:href="#DejaVuSans-65" x="340.046875"/>
       <use xlink:href="#DejaVuSans-68" x="401.570312"/>
       <use xlink:href="#DejaVuSans-6d" x="464.949219"/>
       <use xlink:href="#DejaVuSans-65" x="562.361328"/>
       <use xlink:href="#DejaVuSans-6e" x="623.884766"/>
      </g>
     </g>
    </g>
    <g id="xtick_22">
     <g id="line2d_22">
      <g>
       <use xlink:href="#m86156cfbdd" x="388.981646" y="195.157188" style="stroke: #000000; stroke-width: 0.8"/>
      </g>
     </g>
     <g id="text_22">
      <!-- Zukunft -->
      <g style="fill: #ffffff" transform="translate(360.212344 234.828836)rotate(-45)scale(0.1 -0.1)">
       <use xlink:href="#DejaVuSans-5a"/>
       <use xlink:href="#DejaVuSans-75" x="68.505859"/>
       <use xlink:href="#DejaVuSans-6b" x="131.884766"/>
       <use xlink:href="#DejaVuSans-75" x="186.669922"/>
       <use xlink:href="#DejaVuSans-6e" x="250.048828"/>
       <use xlink:href="#DejaVuSans-66" x="313.427734"/>
       <use xlink:href="#DejaVuSans-74" x="346.882812"/>
      </g>
     </g>
    </g>
    <g id="xtick_23">
     <g id="line2d_23">
      <g>
       <use xlink:href="#m86156cfbdd" x="404.090461" y="195.157188" style="stroke: #000000; stroke-width: 0.8"/>
      </g>
     </g>
     <g id="text_23">
      <!-- Bürger*innen -->
      <g style="fill: #ffffff" transform="translate(355.462507 254.687488)rotate(-45)scale(0.1 -0.1)">
       <defs>
        <path id="DejaVuSans-42" d="M 1259 2228 
L 1259 519 
L 2272 519 
Q 2781 519 3026 730 
Q 3272 941 3272 1375 
Q 3272 1813 3026 2020 
Q 2781 2228 2272 2228 
L 1259 2228 
z
M 1259 4147 
L 1259 2741 
L 2194 2741 
Q 2656 2741 2882 2914 
Q 3109 3088 3109 3444 
Q 3109 3797 2882 3972 
Q 2656 4147 2194 4147 
L 1259 4147 
z
M 628 4666 
L 2241 4666 
Q 2963 4666 3353 4366 
Q 3744 4066 3744 3513 
Q 3744 3084 3544 2831 
Q 3344 2578 2956 2516 
Q 3422 2416 3680 2098 
Q 3938 1781 3938 1306 
Q 3938 681 3513 340 
Q 3088 0 2303 0 
L 628 0 
L 628 4666 
z
" transform="scale(0.015625)"/>
        <path id="DejaVuSans-2a" d="M 3009 3897 
L 1888 3291 
L 3009 2681 
L 2828 2375 
L 1778 3009 
L 1778 1831 
L 1422 1831 
L 1422 3009 
L 372 2375 
L 191 2681 
L 1313 3291 
L 191 3897 
L 372 4206 
L 1422 3572 
L 1422 4750 
L 1778 4750 
L 1778 3572 
L 2828 4206 
L 3009 3897 
z
" transform="scale(0.015625)"/>
       </defs>
       <use xlink:href="#DejaVuSans-42"/>
       <use xlink:href="#DejaVuSans-fc" x="68.603516"/>
       <use xlink:href="#DejaVuSans-72" x="131.982422"/>
       <use xlink:href="#DejaVuSans-67" x="171.345703"/>
       <use xlink:href="#DejaVuSans-65" x="234.822266"/>
       <use xlink:href="#DejaVuSans-72" x="296.345703"/>
       <use xlink:href="#DejaVuSans-2a" x="337.458984"/>
       <use xlink:href="#DejaVuSans-69" x="387.458984"/>
       <use xlink:href="#DejaVuSans-6e" x="415.242188"/>
       <use xlink:href="#DejaVuSans-6e" x="478.621094"/>
       <use xlink:href="#DejaVuSans-65" x="542"/>
       <use xlink:href="#DejaVuSans-6e" x="603.523438"/>
      </g>
     </g>
    </g>
    <g id="xtick_24">
     <g id="line2d_24">
      <g>
       <use xlink:href="#m86156cfbdd" x="419.199277" y="195.157188" style="stroke: #000000; stroke-width: 0.8"/>
      </g>
     </g>
     <g id="text_24">
      <!-- sichern -->
      <g style="fill: #ffffff" transform="translate(392.096095 233.162715)rotate(-45)scale(0.1 -0.1)">
       <use xlink:href="#DejaVuSans-73"/>
       <use xlink:href="#DejaVuSans-69" x="52.099609"/>
       <use xlink:href="#DejaVuSans-63" x="79.882812"/>
       <use xlink:href="#DejaVuSans-68" x="134.863281"/>
       <use xlink:href="#DejaVuSans-65" x="198.242188"/>
       <use xlink:href="#DejaVuSans-72" x="259.765625"/>
       <use xlink:href="#DejaVuSans-6e" x="299.128906"/>
      </g>
     </g>
    </g>
    <g id="xtick_25">
     <g id="line2d_25">
      <g>
       <use xlink:href="#m86156cfbdd" x="434.308092" y="195.157188" style="stroke: #000000; stroke-width: 0.8"/>
      </g>
     </g>
     <g id="text_25">
      <!-- gemeinsam -->
      <g style="fill: #ffffff" transform="translate(391.408808 248.958818)rotate(-45)scale(0.1 -0.1)">
       <use xlink:href="#DejaVuSans-67"/>
       <use xlink:href="#DejaVuSans-65" x="63.476562"/>
       <use xlink:href="#DejaVuSans-6d" x="125"/>
       <use xlink:href="#DejaVuSans-65" x="222.412109"/>
       <use xlink:href="#DejaVuSans-69" x="283.935547"/>
       <use xlink:href="#DejaVuSans-6e" x="311.71875"/>
       <use xlink:href="#DejaVuSans-73" x="375.097656"/>
       <use xlink:href="#DejaVuSans-61" x="427.197266"/>
       <use xlink:href="#DejaVuSans-6d" x="488.476562"/>
      </g>
     </g>
    </g>
    <g id="xtick_26">
     <g id="line2d_26">
      <g>
       <use xlink:href="#m86156cfbdd" x="449.416908" y="195.157188" style="stroke: #000000; stroke-width: 0.8"/>
      </g>
     </g>
     <g id="text_26">
      <!-- europäisch -->
      <g style="fill: #ffffff" transform="translate(409.20021 246.276232)rotate(-45)scale(0.1 -0.1)">
       <use xlink:href="#DejaVuSans-65"/>
       <use xlink:href="#DejaVuSans-75" x="61.523438"/>
       <use xlink:href="#DejaVuSans-72" x="124.902344"/>
       <use xlink:href="#DejaVuSans-6f" x="163.765625"/>
       <use xlink:href="#DejaVuSans-70" x="224.947266"/>
       <use xlink:href="#DejaVuSans-e4" x="288.423828"/>
       <use xlink:href="#DejaVuSans-69" x="349.703125"/>
       <use xlink:href="#DejaVuSans-73" x="377.486328"/>
       <use xlink:href="#DejaVuSans-63" x="429.585938"/>
       <use xlink:href="#DejaVuSans-68" x="484.566406"/>
      </g>
     </g>
    </g>
    <g id="xtick_27">
     <g id="line2d_27">
      <g>
       <use xlink:href="#m86156cfbdd" x="464.525723" y="195.157188" style="stroke: #000000; stroke-width: 0.8"/>
      </g>
     </g>
     <g id="text_27">
      <!-- nachhaltig -->
      <g style="fill: #ffffff" transform="translate(425.86687 244.718387)rotate(-45)scale(0.1 -0.1)">
       <use xlink:href="#DejaVuSans-6e"/>
       <use xlink:href="#DejaVuSans-61" x="63.378906"/>
       <use xlink:href="#DejaVuSans-63" x="124.658203"/>
       <use xlink:href="#DejaVuSans-68" x="179.638672"/>
       <use xlink:href="#DejaVuSans-68" x="243.017578"/>
       <use xlink:href="#DejaVuSans-61" x="306.396484"/>
       <use xlink:href="#DejaVuSans-6c" x="367.675781"/>
       <use xlink:href="#DejaVuSans-74" x="395.458984"/>
       <use xlink:href="#DejaVuSans-69" x="434.667969"/>
       <use xlink:href="#DejaVuSans-67" x="462.451172"/>
      </g>
     </g>
    </g>
    <g id="xtick_28">
     <g id="line2d_28">
      <g>
       <use xlink:href="#m86156cfbdd" x="479.634539" y="195.157188" style="stroke: #000000; stroke-width: 0.8"/>
      </g>
     </g>
     <g id="text_28">
      <!-- wichtig -->
      <g style="fill: #ffffff" transform="translate(452.821933 232.872139)rotate(-45)scale(0.1 -0.1)">
       <defs>
        <path id="DejaVuSans-77" d="M 269 3500 
L 844 3500 
L 1563 769 
L 2278 3500 
L 2956 3500 
L 3675 769 
L 4391 3500 
L 4966 3500 
L 4050 0 
L 3372 0 
L 2619 2869 
L 1863 0 
L 1184 0 
L 269 3500 
z
" transform="scale(0.015625)"/>
       </defs>
       <use xlink:href="#DejaVuSans-77"/>
       <use xlink:href="#DejaVuSans-69" x="81.787109"/>
       <use xlink:href="#DejaVuSans-63" x="109.570312"/>
       <use xlink:href="#DejaVuSans-68" x="164.550781"/>
       <use xlink:href="#DejaVuSans-74" x="227.929688"/>
       <use xlink:href="#DejaVuSans-69" x="267.138672"/>
       <use xlink:href="#DejaVuSans-67" x="294.921875"/>
      </g>
     </g>
    </g>
    <g id="xtick_29">
     <g id="line2d_29">
      <g>
       <use xlink:href="#m86156cfbdd" x="494.743354" y="195.157188" style="stroke: #000000; stroke-width: 0.8"/>
      </g>
     </g>
     <g id="text_29">
      <!-- Leben -->
      <g style="fill: #ffffff" transform="translate(471.784481 229.018407)rotate(-45)scale(0.1 -0.1)">
       <use xlink:href="#DejaVuSans-4c"/>
       <use xlink:href="#DejaVuSans-65" x="53.962891"/>
       <use xlink:href="#DejaVuSans-62" x="115.486328"/>
       <use xlink:href="#DejaVuSans-65" x="178.962891"/>
       <use xlink:href="#DejaVuSans-6e" x="240.486328"/>
      </g>
     </g>
    </g>
    <g id="xtick_30">
     <g id="line2d_30">
      <g>
       <use xlink:href="#m86156cfbdd" x="509.852169" y="195.157188" style="stroke: #000000; stroke-width: 0.8"/>
      </g>
     </g>
     <g id="text_30">
      <!-- sozial -->
      <g style="fill: #ffffff" transform="translate(488.398108 227.513595)rotate(-45)scale(0.1 -0.1)">
       <use xlink:href="#DejaVuSans-73"/>
       <use xlink:href="#DejaVuSans-6f" x="52.099609"/>
       <use xlink:href="#DejaVuSans-7a" x="113.28125"/>
       <use xlink:href="#DejaVuSans-69" x="165.771484"/>
       <use xlink:href="#DejaVuSans-61" x="193.554688"/>
       <use xlink:href="#DejaVuSans-6c" x="254.833984"/>
      </g>
     </g>
    </g>
    <g id="xtick_31">
     <g id="line2d_31">
      <g>
       <use xlink:href="#m86156cfbdd" x="524.960985" y="195.157188" style="stroke: #000000; stroke-width: 0.8"/>
      </g>
     </g>
     <g id="text_31">
      <!-- stehen -->
      <g style="fill: #ffffff" transform="translate(499.370348 231.65017)rotate(-45)scale(0.1 -0.1)">
       <use xlink:href="#DejaVuSans-73"/>
       <use xlink:href="#DejaVuSans-74" x="52.099609"/>
       <use xlink:href="#DejaVuSans-65" x="91.308594"/>
       <use xlink:href="#DejaVuSans-68" x="152.832031"/>
       <use xlink:href="#DejaVuSans-65" x="216.210938"/>
       <use xlink:href="#DejaVuSans-6e" x="277.734375"/>
      </g>
     </g>
    </g>
    <g id="xtick_32">
     <g id="line2d_32">
      <g>
       <use xlink:href="#m86156cfbdd" x="540.0698" y="195.157188" style="stroke: #000000; stroke-width: 0.8"/>
      </g>
     </g>
     <g id="text_32">
      <!-- ermöglichen -->
      <g style="fill: #ffffff" transform="translate(494.63156 251.497773)rotate(-45)scale(0.1 -0.1)">
       <use xlink:href="#DejaVuSans-65"/>
       <use xlink:href="#DejaVuSans-72" x="61.523438"/>
       <use xlink:href="#DejaVuSans-6d" x="100.886719"/>
       <use xlink:href="#DejaVuSans-f6" x="198.298828"/>
       <use xlink:href="#DejaVuSans-67" x="259.480469"/>
       <use xlink:href="#DejaVuSans-6c" x="322.957031"/>
       <use xlink:href="#DejaVuSans-69" x="350.740234"/>
       <use xlink:href="#DejaVuSans-63" x="378.523438"/>
       <use xlink:href="#DejaVuSans-68" x="433.503906"/>
       <use xlink:href="#DejaVuSans-65" x="496.882812"/>
       <use xlink:href="#DejaVuSans-6e" x="558.40625"/>
      </g>
     </g>
    </g>
    <g id="xtick_33">
     <g id="line2d_33">
      <g>
       <use xlink:href="#m86156cfbdd" x="555.178616" y="195.157188" style="stroke: #000000; stroke-width: 0.8"/>
      </g>
     </g>
     <g id="text_33">
      <!-- erhalten -->
      <g style="fill: #ffffff" transform="translate(524.190766 237.047383)rotate(-45)scale(0.1 -0.1)">
       <use xlink:href="#DejaVuSans-65"/>
       <use xlink:href="#DejaVuSans-72" x="61.523438"/>
       <use xlink:href="#DejaVuSans-68" x="100.886719"/>
       <use xlink:href="#DejaVuSans-61" x="164.265625"/>
       <use xlink:href="#DejaVuSans-6c" x="225.544922"/>
       <use xlink:href="#DejaVuSans-74" x="253.328125"/>
       <use xlink:href="#DejaVuSans-65" x="292.537109"/>
       <use xlink:href="#DejaVuSans-6e" x="354.060547"/>
      </g>
     </g>
    </g>
    <g id="xtick_34">
     <g id="line2d_34">
      <g>
       <use xlink:href="#m86156cfbdd" x="570.287431" y="195.157188" style="stroke: #000000; stroke-width: 0.8"/>
      </g>
     </g>
     <g id="text_34">
      <!-- Welt -->
      <g style="fill: #ffffff" transform="translate(553.15335 223.193615)rotate(-45)scale(0.1 -0.1)">
       <defs>
        <path id="DejaVuSans-57" d="M 213 4666 
L 850 4666 
L 1831 722 
L 2809 4666 
L 3519 4666 
L 4500 722 
L 5478 4666 
L 6119 4666 
L 4947 0 
L 4153 0 
L 3169 4050 
L 2175 0 
L 1381 0 
L 213 4666 
z
" transform="scale(0.015625)"/>
       </defs>
       <use xlink:href="#DejaVuSans-57"/>
       <use xlink:href="#DejaVuSans-65" x="93.001953"/>
       <use xlink:href="#DejaVuSans-6c" x="154.525391"/>
       <use xlink:href="#DejaVuSans-74" x="182.308594"/>
      </g>
     </g>
    </g>
    <g id="xtick_35">
     <g id="line2d_35">
      <g>
       <use xlink:href="#m86156cfbdd" x="585.396247" y="195.157188" style="stroke: #000000; stroke-width: 0.8"/>
      </g>
     </g>
     <g id="text_35">
      <!-- Entwicklung -->
      <g style="fill: #ffffff" transform="translate(541.058442 250.397338)rotate(-45)scale(0.1 -0.1)">
       <use xlink:href="#DejaVuSans-45"/>
       <use xlink:href="#DejaVuSans-6e" x="63.183594"/>
       <use xlink:href="#DejaVuSans-74" x="126.5625"/>
       <use xlink:href="#DejaVuSans-77" x="165.771484"/>
       <use xlink:href="#DejaVuSans-69" x="247.558594"/>
       <use xlink:href="#DejaVuSans-63" x="275.341797"/>
       <use xlink:href="#DejaVuSans-6b" x="330.322266"/>
       <use xlink:href="#DejaVuSans-6c" x="388.232422"/>
       <use xlink:href="#DejaVuSans-75" x="416.015625"/>
       <use xlink:href="#DejaVuSans-6e" x="479.394531"/>
       <use xlink:href="#DejaVuSans-67" x="542.773438"/>
      </g>
     </g>
    </g>
    <g id="xtick_36">
     <g id="line2d_36">
      <g>
       <use xlink:href="#m86156cfbdd" x="600.505062" y="195.157188" style="stroke: #000000; stroke-width: 0.8"/>
      </g>
     </g>
     <g id="text_36">
      <!-- gelten -->
      <g style="fill: #ffffff" transform="translate(576.625845 229.938751)rotate(-45)scale(0.1 -0.1)">
       <use xlink:href="#DejaVuSans-67"/>
       <use xlink:href="#DejaVuSans-65" x="63.476562"/>
       <use xlink:href="#DejaVuSans-6c" x="125"/>
       <use xlink:href="#DejaVuSans-74" x="152.783203"/>
       <use xlink:href="#DejaVuSans-65" x="191.992188"/>
       <use xlink:href="#DejaVuSans-6e" x="253.515625"/>
      </g>
     </g>
    </g>
    <g id="xtick_37">
     <g id="line2d_37">
      <g>
       <use xlink:href="#m86156cfbdd" x="615.613877" y="195.157188" style="stroke: #000000; stroke-width: 0.8"/>
      </g>
     </g>
     <g id="text_37">
      <!-- Kommune -->
      <g style="fill: #ffffff" transform="translate(578.444368 243.229043)rotate(-45)scale(0.1 -0.1)">
       <use xlink:href="#DejaVuSans-4b"/>
       <use xlink:href="#DejaVuSans-6f" x="60.576172"/>
       <use xlink:href="#DejaVuSans-6d" x="121.757812"/>
       <use xlink:href="#DejaVuSans-6d" x="219.169922"/>
       <use xlink:href="#DejaVuSans-75" x="316.582031"/>
       <use xlink:href="#DejaVuSans-6e" x="379.960938"/>
       <use xlink:href="#DejaVuSans-65" x="443.339844"/>
      </g>
     </g>
    </g>
    <g id="xtick_38">
     <g id="line2d_38">
      <g>
       <use xlink:href="#m86156cfbdd" x="630.722693" y="195.157188" style="stroke: #000000; stroke-width: 0.8"/>
      </g>
     </g>
     <g id="text_38">
      <!-- Frau -->
      <g style="fill: #ffffff" transform="translate(613.976416 222.805811)rotate(-45)scale(0.1 -0.1)">
       <defs>
        <path id="DejaVuSans-46" d="M 628 4666 
L 3309 4666 
L 3309 4134 
L 1259 4134 
L 1259 2759 
L 3109 2759 
L 3109 2228 
L 1259 2228 
L 1259 0 
L 628 0 
L 628 4666 
z
" transform="scale(0.015625)"/>
       </defs>
       <use xlink:href="#DejaVuSans-46"/>
       <use xlink:href="#DejaVuSans-72" x="50.269531"/>
       <use xlink:href="#DejaVuSans-61" x="91.382812"/>
       <use xlink:href="#DejaVuSans-75" x="152.662109"/>
      </g>
     </g>
    </g>
    <g id="xtick_39">
     <g id="line2d_39">
      <g>
       <use xlink:href="#m86156cfbdd" x="645.831508" y="195.157188" style="stroke: #000000; stroke-width: 0.8"/>
      </g>
     </g>
     <g id="text_39">
      <!-- stark -->
      <g style="fill: #ffffff" transform="translate(626.570582 225.320459)rotate(-45)scale(0.1 -0.1)">
       <use xlink:href="#DejaVuSans-73"/>
       <use xlink:href="#DejaVuSans-74" x="52.099609"/>
       <use xlink:href="#DejaVuSans-61" x="91.308594"/>
       <use xlink:href="#DejaVuSans-72" x="152.587891"/>
       <use xlink:href="#DejaVuSans-6b" x="193.701172"/>
      </g>
     </g>
    </g>
    <g id="xtick_40">
     <g id="line2d_40">
      <g>
       <use xlink:href="#m86156cfbdd" x="660.940324" y="195.157188" style="stroke: #000000; stroke-width: 0.8"/>
      </g>
     </g>
     <g id="text_40">
      <!-- ausbauen -->
      <g style="fill: #ffffff" transform="translate(624.835893 242.163964)rotate(-45)scale(0.1 -0.1)">
       <use xlink:href="#DejaVuSans-61"/>
       <use xlink:href="#DejaVuSans-75" x="61.279297"/>
       <use xlink:href="#DejaVuSans-73" x="124.658203"/>
       <use xlink:href="#DejaVuSans-62" x="176.757812"/>
       <use xlink:href="#DejaVuSans-61" x="240.234375"/>
       <use xlink:href="#DejaVuSans-75" x="301.513672"/>
       <use xlink:href="#DejaVuSans-65" x="364.892578"/>
       <use xlink:href="#DejaVuSans-6e" x="426.416016"/>
      </g>
     </g>
    </g>
    <g id="xtick_41">
     <g id="line2d_41">
      <g>
       <use xlink:href="#m86156cfbdd" x="676.049139" y="195.157188" style="stroke: #000000; stroke-width: 0.8"/>
      </g>
     </g>
     <g id="text_41">
      <!-- Respekt -->
      <g style="fill: #ffffff" transform="translate(646.242379 235.866294)rotate(-45)scale(0.1 -0.1)">
       <defs>
        <path id="DejaVuSans-52" d="M 2841 2188 
Q 3044 2119 3236 1894 
Q 3428 1669 3622 1275 
L 4263 0 
L 3584 0 
L 2988 1197 
Q 2756 1666 2539 1819 
Q 2322 1972 1947 1972 
L 1259 1972 
L 1259 0 
L 628 0 
L 628 4666 
L 2053 4666 
Q 2853 4666 3247 4331 
Q 3641 3997 3641 3322 
Q 3641 2881 3436 2590 
Q 3231 2300 2841 2188 
z
M 1259 4147 
L 1259 2491 
L 2053 2491 
Q 2509 2491 2742 2702 
Q 2975 2913 2975 3322 
Q 2975 3731 2742 3939 
Q 2509 4147 2053 4147 
L 1259 4147 
z
" transform="scale(0.015625)"/>
       </defs>
       <use xlink:href="#DejaVuSans-52"/>
       <use xlink:href="#DejaVuSans-65" x="64.982422"/>
       <use xlink:href="#DejaVuSans-73" x="126.505859"/>
       <use xlink:href="#DejaVuSans-70" x="178.605469"/>
       <use xlink:href="#DejaVuSans-65" x="242.082031"/>
       <use xlink:href="#DejaVuSans-6b" x="303.605469"/>
       <use xlink:href="#DejaVuSans-74" x="361.515625"/>
      </g>
     </g>
    </g>
    <g id="xtick_42">
     <g id="line2d_42">
      <g>
       <use xlink:href="#m86156cfbdd" x="691.157955" y="195.157188" style="stroke: #000000; stroke-width: 0.8"/>
      </g>
     </g>
     <g id="text_42">
      <!-- bleiben -->
      <g style="fill: #ffffff" transform="translate(663.597363 233.620125)rotate(-45)scale(0.1 -0.1)">
       <use xlink:href="#DejaVuSans-62"/>
       <use xlink:href="#DejaVuSans-6c" x="63.476562"/>
       <use xlink:href="#DejaVuSans-65" x="91.259766"/>
       <use xlink:href="#DejaVuSans-69" x="152.783203"/>
       <use xlink:href="#DejaVuSans-62" x="180.566406"/>
       <use xlink:href="#DejaVuSans-65" x="244.042969"/>
       <use xlink:href="#DejaVuSans-6e" x="305.566406"/>
      </g>
     </g>
    </g>
    <g id="xtick_43">
     <g id="line2d_43">
      <g>
       <use xlink:href="#m86156cfbdd" x="706.26677" y="195.157188" style="stroke: #000000; stroke-width: 0.8"/>
      </g>
     </g>
     <g id="text_43">
      <!-- neu -->
      <g style="fill: #ffffff" transform="translate(691.482714 220.84359)rotate(-45)scale(0.1 -0.1)">
       <use xlink:href="#DejaVuSans-6e"/>
       <use xlink:href="#DejaVuSans-65" x="63.378906"/>
       <use xlink:href="#DejaVuSans-75" x="124.902344"/>
      </g>
     </g>
    </g>
    <g id="xtick_44">
     <g id="line2d_44">
      <g>
       <use xlink:href="#m86156cfbdd" x="721.375585" y="195.157188" style="stroke: #000000; stroke-width: 0.8"/>
      </g>
     </g>
     <g id="text_44">
      <!-- mein -->
      <g style="fill: #ffffff" transform="translate(702.220726 225.214393)rotate(-45)scale(0.1 -0.1)">
       <use xlink:href="#DejaVuSans-6d"/>
       <use xlink:href="#DejaVuSans-65" x="97.412109"/>
       <use xlink:href="#DejaVuSans-69" x="158.935547"/>
       <use xlink:href="#DejaVuSans-6e" x="186.71875"/>
      </g>
     </g>
    </g>
    <g id="xtick_45">
     <g id="line2d_45">
      <g>
       <use xlink:href="#m86156cfbdd" x="736.484401" y="195.157188" style="stroke: #000000; stroke-width: 0.8"/>
      </g>
     </g>
     <g id="text_45">
      <!-- Förderung -->
      <g style="fill: #ffffff" transform="translate(698.895046 243.648888)rotate(-45)scale(0.1 -0.1)">
       <use xlink:href="#DejaVuSans-46"/>
       <use xlink:href="#DejaVuSans-f6" x="53.894531"/>
       <use xlink:href="#DejaVuSans-72" x="115.076172"/>
       <use xlink:href="#DejaVuSans-64" x="154.439453"/>
       <use xlink:href="#DejaVuSans-65" x="217.916016"/>
       <use xlink:href="#DejaVuSans-72" x="279.439453"/>
       <use xlink:href="#DejaVuSans-75" x="320.552734"/>
       <use xlink:href="#DejaVuSans-6e" x="383.931641"/>
       <use xlink:href="#DejaVuSans-67" x="447.310547"/>
      </g>
     </g>
    </g>
    <g id="xtick_46">
     <g id="line2d_46">
      <g>
       <use xlink:href="#m86156cfbdd" x="751.593216" y="195.157188" style="stroke: #000000; stroke-width: 0.8"/>
      </g>
     </g>
     <g id="text_46">
      <!-- verbessern -->
      <g style="fill: #ffffff" transform="translate(710.857237 246.795513)rotate(-45)scale(0.1 -0.1)">
       <use xlink:href="#DejaVuSans-76"/>
       <use xlink:href="#DejaVuSans-65" x="59.179688"/>
       <use xlink:href="#DejaVuSans-72" x="120.703125"/>
       <use xlink:href="#DejaVuSans-62" x="161.816406"/>
       <use xlink:href="#DejaVuSans-65" x="225.292969"/>
       <use xlink:href="#DejaVuSans-73" x="286.816406"/>
       <use xlink:href="#DejaVuSans-73" x="338.916016"/>
       <use xlink:href="#DejaVuSans-65" x="391.015625"/>
       <use xlink:href="#DejaVuSans-72" x="452.539062"/>
       <use xlink:href="#DejaVuSans-6e" x="491.902344"/>
      </g>
     </g>
    </g>
    <g id="xtick_47">
     <g id="line2d_47">
      <g>
       <use xlink:href="#m86156cfbdd" x="766.702032" y="195.157188" style="stroke: #000000; stroke-width: 0.8"/>
      </g>
     </g>
     <g id="text_47">
      <!-- Einkommen -->
      <g style="fill: #ffffff" transform="translate(723.545316 249.216249)rotate(-45)scale(0.1 -0.1)">
       <use xlink:href="#DejaVuSans-45"/>
       <use xlink:href="#DejaVuSans-69" x="63.183594"/>
       <use xlink:href="#DejaVuSans-6e" x="90.966797"/>
       <use xlink:href="#DejaVuSans-6b" x="154.345703"/>
       <use xlink:href="#DejaVuSans-6f" x="208.630859"/>
       <use xlink:href="#DejaVuSans-6d" x="269.8125"/>
       <use xlink:href="#DejaVuSans-6d" x="367.224609"/>
       <use xlink:href="#DejaVuSans-65" x="464.636719"/>
       <use xlink:href="#DejaVuSans-6e" x="526.160156"/>
      </g>
     </g>
    </g>
    <g id="xtick_48">
     <g id="line2d_48">
      <g>
       <use xlink:href="#m86156cfbdd" x="781.810847" y="195.157188" style="stroke: #000000; stroke-width: 0.8"/>
      </g>
     </g>
     <g id="text_48">
      <!-- weiterentwickel -->
      <g style="fill: #ffffff" transform="translate(724.978244 262.892136)rotate(-45)scale(0.1 -0.1)">
       <use xlink:href="#DejaVuSans-77"/>
       <use xlink:href="#DejaVuSans-65" x="81.787109"/>
       <use xlink:href="#DejaVuSans-69" x="143.310547"/>
       <use xlink:href="#DejaVuSans-74" x="171.09375"/>
       <use xlink:href="#DejaVuSans-65" x="210.302734"/>
       <use xlink:href="#DejaVuSans-72" x="271.826172"/>
       <use xlink:href="#DejaVuSans-65" x="310.689453"/>
       <use xlink:href="#DejaVuSans-6e" x="372.212891"/>
       <use xlink:href="#DejaVuSans-74" x="435.591797"/>
       <use xlink:href="#DejaVuSans-77" x="474.800781"/>
       <use xlink:href="#DejaVuSans-69" x="556.587891"/>
       <use xlink:href="#DejaVuSans-63" x="584.371094"/>
       <use xlink:href="#DejaVuSans-6b" x="639.351562"/>
       <use xlink:href="#DejaVuSans-65" x="693.636719"/>
       <use xlink:href="#DejaVuSans-6c" x="755.160156"/>
      </g>
     </g>
    </g>
    <g id="xtick_49">
     <g id="line2d_49">
      <g>
       <use xlink:href="#m86156cfbdd" x="796.919663" y="195.157188" style="stroke: #000000; stroke-width: 0.8"/>
      </g>
     </g>
     <g id="text_49">
      <!-- gut -->
      <g style="fill: #ffffff" transform="translate(783.706709 219.272487)rotate(-45)scale(0.1 -0.1)">
       <use xlink:href="#DejaVuSans-67"/>
       <use xlink:href="#DejaVuSans-75" x="63.476562"/>
       <use xlink:href="#DejaVuSans-74" x="126.855469"/>
      </g>
     </g>
    </g>
    <g id="xtick_50">
     <g id="line2d_50">
      <g>
       <use xlink:href="#m86156cfbdd" x="812.028478" y="195.157188" style="stroke: #000000; stroke-width: 0.8"/>
      </g>
     </g>
     <g id="text_50">
      <!-- EU -->
      <g style="fill: #ffffff" transform="translate(800.914748 217.173263)rotate(-45)scale(0.1 -0.1)">
       <use xlink:href="#DejaVuSans-45"/>
       <use xlink:href="#DejaVuSans-55" x="63.183594"/>
      </g>
     </g>
    </g>
   </g>
   <g id="matplotlib.axis_2">
    <g id="ytick_1">
     <g id="line2d_51">
      <defs>
       <path id="mddae17057d" d="M 0 0 
L -3.5 0 
" style="stroke: #000000; stroke-width: 0.8"/>
      </defs>
      <g>
       <use xlink:href="#mddae17057d" x="30.525" y="195.157188" style="stroke: #000000; stroke-width: 0.8"/>
      </g>
     </g>
     <g id="text_51">
      <!-- 0 -->
      <g style="fill: #ffffff" transform="translate(17.1625 198.956407)scale(0.1 -0.1)">
       <defs>
        <path id="DejaVuSans-30" d="M 2034 4250 
Q 1547 4250 1301 3770 
Q 1056 3291 1056 2328 
Q 1056 1369 1301 889 
Q 1547 409 2034 409 
Q 2525 409 2770 889 
Q 3016 1369 3016 2328 
Q 3016 3291 2770 3770 
Q 2525 4250 2034 4250 
z
M 2034 4750 
Q 2819 4750 3233 4129 
Q 3647 3509 3647 2328 
Q 3647 1150 3233 529 
Q 2819 -91 2034 -91 
Q 1250 -91 836 529 
Q 422 1150 422 2328 
Q 422 3509 836 4129 
Q 1250 4750 2034 4750 
z
" transform="scale(0.015625)"/>
       </defs>
       <use xlink:href="#DejaVuSans-30"/>
      </g>
     </g>
    </g>
    <g id="ytick_2">
     <g id="line2d_52">
      <g>
       <use xlink:href="#mddae17057d" x="30.525" y="170.360256" style="stroke: #000000; stroke-width: 0.8"/>
      </g>
     </g>
     <g id="text_52">
      <!-- 10 -->
      <g style="fill: #ffffff" transform="translate(10.8 174.159474)scale(0.1 -0.1)">
       <defs>
        <path id="DejaVuSans-31" d="M 794 531 
L 1825 531 
L 1825 4091 
L 703 3866 
L 703 4441 
L 1819 4666 
L 2450 4666 
L 2450 531 
L 3481 531 
L 3481 0 
L 794 0 
L 794 531 
z
" transform="scale(0.015625)"/>
       </defs>
       <use xlink:href="#DejaVuSans-31"/>
       <use xlink:href="#DejaVuSans-30" x="63.623047"/>
      </g>
     </g>
    </g>
    <g id="ytick_3">
     <g id="line2d_53">
      <g>
       <use xlink:href="#mddae17057d" x="30.525" y="145.563323" style="stroke: #000000; stroke-width: 0.8"/>
      </g>
     </g>
     <g id="text_53">
      <!-- 20 -->
      <g style="fill: #ffffff" transform="translate(10.8 149.362542)scale(0.1 -0.1)">
       <defs>
        <path id="DejaVuSans-32" d="M 1228 531 
L 3431 531 
L 3431 0 
L 469 0 
L 469 531 
Q 828 903 1448 1529 
Q 2069 2156 2228 2338 
Q 2531 2678 2651 2914 
Q 2772 3150 2772 3378 
Q 2772 3750 2511 3984 
Q 2250 4219 1831 4219 
Q 1534 4219 1204 4116 
Q 875 4013 500 3803 
L 500 4441 
Q 881 4594 1212 4672 
Q 1544 4750 1819 4750 
Q 2544 4750 2975 4387 
Q 3406 4025 3406 3419 
Q 3406 3131 3298 2873 
Q 3191 2616 2906 2266 
Q 2828 2175 2409 1742 
Q 1991 1309 1228 531 
z
" transform="scale(0.015625)"/>
       </defs>
       <use xlink:href="#DejaVuSans-32"/>
       <use xlink:href="#DejaVuSans-30" x="63.623047"/>
      </g>
     </g>
    </g>
    <g id="ytick_4">
     <g id="line2d_54">
      <g>
       <use xlink:href="#mddae17057d" x="30.525" y="120.766391" style="stroke: #000000; stroke-width: 0.8"/>
      </g>
     </g>
     <g id="text_54">
      <!-- 30 -->
      <g style="fill: #ffffff" transform="translate(10.8 124.56561)scale(0.1 -0.1)">
       <defs>
        <path id="DejaVuSans-33" d="M 2597 2516 
Q 3050 2419 3304 2112 
Q 3559 1806 3559 1356 
Q 3559 666 3084 287 
Q 2609 -91 1734 -91 
Q 1441 -91 1130 -33 
Q 819 25 488 141 
L 488 750 
Q 750 597 1062 519 
Q 1375 441 1716 441 
Q 2309 441 2620 675 
Q 2931 909 2931 1356 
Q 2931 1769 2642 2001 
Q 2353 2234 1838 2234 
L 1294 2234 
L 1294 2753 
L 1863 2753 
Q 2328 2753 2575 2939 
Q 2822 3125 2822 3475 
Q 2822 3834 2567 4026 
Q 2313 4219 1838 4219 
Q 1578 4219 1281 4162 
Q 984 4106 628 3988 
L 628 4550 
Q 988 4650 1302 4700 
Q 1616 4750 1894 4750 
Q 2613 4750 3031 4423 
Q 3450 4097 3450 3541 
Q 3450 3153 3228 2886 
Q 3006 2619 2597 2516 
z
" transform="scale(0.015625)"/>
       </defs>
       <use xlink:href="#DejaVuSans-33"/>
       <use xlink:href="#DejaVuSans-30" x="63.623047"/>
      </g>
     </g>
    </g>
    <g id="ytick_5">
     <g id="line2d_55">
      <g>
       <use xlink:href="#mddae17057d" x="30.525" y="95.969459" style="stroke: #000000; stroke-width: 0.8"/>
      </g>
     </g>
     <g id="text_55">
      <!-- 40 -->
      <g style="fill: #ffffff" transform="translate(10.8 99.768678)scale(0.1 -0.1)">
       <defs>
        <path id="DejaVuSans-34" d="M 2419 4116 
L 825 1625 
L 2419 1625 
L 2419 4116 
z
M 2253 4666 
L 3047 4666 
L 3047 1625 
L 3713 1625 
L 3713 1100 
L 3047 1100 
L 3047 0 
L 2419 0 
L 2419 1100 
L 313 1100 
L 313 1709 
L 2253 4666 
z
" transform="scale(0.015625)"/>
       </defs>
       <use xlink:href="#DejaVuSans-34"/>
       <use xlink:href="#DejaVuSans-30" x="63.623047"/>
      </g>
     </g>
    </g>
    <g id="ytick_6">
     <g id="line2d_56">
      <g>
       <use xlink:href="#mddae17057d" x="30.525" y="71.172526" style="stroke: #000000; stroke-width: 0.8"/>
      </g>
     </g>
     <g id="text_56">
      <!-- 50 -->
      <g style="fill: #ffffff" transform="translate(10.8 74.971745)scale(0.1 -0.1)">
       <defs>
        <path id="DejaVuSans-35" d="M 691 4666 
L 3169 4666 
L 3169 4134 
L 1269 4134 
L 1269 2991 
Q 1406 3038 1543 3061 
Q 1681 3084 1819 3084 
Q 2600 3084 3056 2656 
Q 3513 2228 3513 1497 
Q 3513 744 3044 326 
Q 2575 -91 1722 -91 
Q 1428 -91 1123 -41 
Q 819 9 494 109 
L 494 744 
Q 775 591 1075 516 
Q 1375 441 1709 441 
Q 2250 441 2565 725 
Q 2881 1009 2881 1497 
Q 2881 1984 2565 2268 
Q 2250 2553 1709 2553 
Q 1456 2553 1204 2497 
Q 953 2441 691 2322 
L 691 4666 
z
" transform="scale(0.015625)"/>
       </defs>
       <use xlink:href="#DejaVuSans-35"/>
       <use xlink:href="#DejaVuSans-30" x="63.623047"/>
      </g>
     </g>
    </g>
    <g id="ytick_7">
     <g id="line2d_57">
      <g>
       <use xlink:href="#mddae17057d" x="30.525" y="46.375594" style="stroke: #000000; stroke-width: 0.8"/>
      </g>
     </g>
     <g id="text_57">
      <!-- 60 -->
      <g style="fill: #ffffff" transform="translate(10.8 50.174813)scale(0.1 -0.1)">
       <defs>
        <path id="DejaVuSans-36" d="M 2113 2584 
Q 1688 2584 1439 2293 
Q 1191 2003 1191 1497 
Q 1191 994 1439 701 
Q 1688 409 2113 409 
Q 2538 409 2786 701 
Q 3034 994 3034 1497 
Q 3034 2003 2786 2293 
Q 2538 2584 2113 2584 
z
M 3366 4563 
L 3366 3988 
Q 3128 4100 2886 4159 
Q 2644 4219 2406 4219 
Q 1781 4219 1451 3797 
Q 1122 3375 1075 2522 
Q 1259 2794 1537 2939 
Q 1816 3084 2150 3084 
Q 2853 3084 3261 2657 
Q 3669 2231 3669 1497 
Q 3669 778 3244 343 
Q 2819 -91 2113 -91 
Q 1303 -91 875 529 
Q 447 1150 447 2328 
Q 447 3434 972 4092 
Q 1497 4750 2381 4750 
Q 2619 4750 2861 4703 
Q 3103 4656 3366 4563 
z
" transform="scale(0.015625)"/>
       </defs>
       <use xlink:href="#DejaVuSans-36"/>
       <use xlink:href="#DejaVuSans-30" x="63.623047"/>
      </g>
     </g>
    </g>
   </g>
   <g id="patch_53">
    <path d="M 30.525 195.157188 
L 30.525 25.918125 
" style="fill: none; stroke: #000000; stroke-width: 0.8; stroke-linejoin: miter; stroke-linecap: square"/>
   </g>
   <g id="patch_54">
    <path d="M 853.2 195.157188 
L 853.2 25.918125 
" style="fill: none; stroke: #000000; stroke-width: 0.8; stroke-linejoin: miter; stroke-linecap: square"/>
   </g>
   <g id="patch_55">
    <path d="M 30.525 195.157188 
L 853.2 195.157188 
" style="fill: none; stroke: #000000; stroke-width: 0.8; stroke-linejoin: miter; stroke-linecap: square"/>
   </g>
   <g id="patch_56">
    <path d="M 30.525 25.918125 
L 853.2 25.918125 
" style="fill: none; stroke: #000000; stroke-width: 0.8; stroke-linejoin: miter; stroke-linecap: square"/>
   </g>
   <g id="text_58">
    <!-- SPD -->
    <g style="fill: #ffffff" transform="translate(429.815625 19.918125)scale(0.12 -0.12)">
     <use xlink:href="#DejaVuSans-53"/>
     <use xlink:href="#DejaVuSans-50" x="63.476562"/>
     <use xlink:href="#DejaVuSans-44" x="123.779297"/>
    </g>
   </g>
  </g>
 </g>
 <defs>
  <clipPath id="pb6b4bdfa31">
   <rect x="30.525" y="25.918125" width="822.675" height="169.239063"/>
  </clipPath>
 </defs>
</svg>
